[img]http://img585.imageshack.us/img585/7646/devilsd.jpg[/img]
[code]
The Devils Double 2011 CAM V1 XViD - IMAGiNE

Ripper ...........: IMAGiNE
IMDB Rating.......:6.8/10                             
Video Codec.......: XVID  
Release Date......:16/08/11
Audio Codec.......:MP3   
Theatre Date......:10/08/11
Audio Bitrate.....:128    
Runtime.......:1h 46mn
Subtitles.........:NIL                                                 Language..........:ENGLISH
Resolution...... 720 x 288    
IMDb URL.......... http://www.imdb.com/title/tt1270262/

DETAILS:

Video
ID                               : 0
Format                           : MPEG-4 Visual
Format profile                   : Advanced Simple@L5
Format settings, BVOP            : 2
Format settings, QPel            : No
Format settings, GMC             : No warppoints
Format settings, Matrix          : Default (MPEG)
Muxing mode                      : Packed bitstream
Codec ID                         : XVID
Codec ID/Hint                    : XviD
Duration                         : 1h 43mn
Bit rate                         : 1 750 Kbps
Width                            : 720 pixels
Height                           : 288 pixels
Display aspect ratio             : 2.500
Frame rate                       : 25.000 fps
Color space                      : YUV
Chroma subsampling               : 4:2:0
Bit depth                        : 8 bits
Scan type                        : Progressive
Compression mode                 : Lossy
Bits/(Pixel*Frame)               : 0.338
Stream size                      : 1.27 GiB (93%)
Writing library                  : XviD 64

Audio
ID                               : 1
Format                           : MPEG Audio
Format version                   : Version 1
Format profile                   : Layer 3
Mode                             : Joint stereo
Mode extension                   : MS Stereo
Codec ID                         : 55
Codec ID/Hint                    : MP3
Duration                         : 1h 43mn
Bit rate mode                    : Constant
Bit rate                         : 128 Kbps
Channel(s)                       : 2 channels
Sampling rate                    : 44.1 KHz
Compression mode                 : Lossy
Stream size                      : 95.2 MiB (7%)
Alignment                        : Split accross interleaves
Interleave, duration             : 40 ms (1.00 video frame)

Plot:
A chilling vision of the House of Saddam Hussein comes to life through the eyes of the man who was forced to become the double of Hussein's sadistic son.

SOURCES:
VIDEO: ......... KiKTEAM Thanks Mate 
AUDIO: ......... KiKTEAM

NOTES:
IMAGiNE bringing you another release..........
The Devils Double V1.......
Ok now for this we made a script 
to crop resize and sharpen......
Then we had to rotate and yada yada....
Made some adjustments to the colors as they were off and toned the hotspots down The audio is nice cam audio and will do for now Enjoy Folks!

[/code]
Screens:
[img]http://img810.imageshack.us/img810/5327/34598491.png[/img]
[img]http://img225.imageshack.us/img225/7622/66558073.png[/img]
[img]http://img684.imageshack.us/img684/2072/72667142.png[/img]
[img]http://img8.imageshack.us/img8/9865/40564283.png[/img]